<?xml version="1.0" encoding="UTF-8" standalone="no"?>
<svg
   viewBox="0 0 88.01754 87.81337"
   x="0px"
   y="0px"
   version="1.1"
   id="svg2"
   sodipodi:docname="projects.svg"
   width="88.01754"
   height="87.81337"
   inkscape:version="1.3.2 (1:1.3.2+202311252150+091e20ef0f)"
   xmlns:inkscape="http://www.inkscape.org/namespaces/inkscape"
   xmlns:sodipodi="http://sodipodi.sourceforge.net/DTD/sodipodi-0.dtd"
   xmlns="http://www.w3.org/2000/svg"
   xmlns:svg="http://www.w3.org/2000/svg">
  <defs
     id="defs2" />
  <sodipodi:namedview
     id="namedview2"
     pagecolor="#ffffff"
     bordercolor="#111111"
     borderopacity="1"
     inkscape:showpageshadow="0"
     inkscape:pageopacity="0"
     inkscape:pagecheckerboard="1"
     inkscape:deskcolor="#d1d1d1"
     inkscape:zoom="7.8"
     inkscape:cx="43.974359"
     inkscape:cy="56.025641"
     inkscape:window-width="1920"
     inkscape:window-height="1136"
     inkscape:window-x="0"
     inkscape:window-y="0"
     inkscape:window-maximized="1"
     inkscape:current-layer="svg2" />
  <path
     d="m 88.001,18.003323 c 0,-0.552 -0.447,-1 -1,-1 h -4.883 l 3.767,-9.3249998 c 0.975,-2.274 -0.23,-5.111 -2.542,-5.99 0,0 -3.339,-1.34899996 -3.339,-1.34899996 -2.272,-0.973 -5.113,0.23 -5.99,2.54299996 -1.11,2.745 -4.545,11.2499998 -5.706,14.1209998 H 46.43 L 45.032,7.0533232 c -0.077,-0.546 -0.571,-0.935 -1.13,-0.851 l -16.938,2.38 c -0.532,0.065 -0.937,0.599 -0.851,1.129 0,0 1.025,7.2909998 1.025,7.2909998 H 20 v -2 C 20,9.4883232 15.514,5.0023232 10,5.0023232 c -5.514,0 -10,4.486 -10,9.9999998 v 51 c 0,5.514 4.486,10 10,10 h 25.43 l 1.539,10.95 c 0.07,0.5 0.498,0.861 0.989,0.861 0.161,0.012 16.916,-2.381 17.078,-2.39 0.532,-0.065 0.937,-0.599 0.85,-1.129 0,0 -1.167,-8.301 -1.167,-8.301 0.002,0 19.794,0 19.796,0 0.205,0.002 0.391,-0.081 0.565,-0.178 2.74,-1.909 5.294,-4.084 7.588,-6.466 1.882,-1.945 3.615,-4.056 5.153,-6.276 0.076,-0.136 0.156,-0.286 0.158,-0.441 0.099,-0.158 -0.03,-44.468 0.02,-44.628 z m -14.195,-9.2709998 3.155,1.2749998 -14.331,35.473 c -0.757,0.099 -2.232,0.217 -3.634,-0.092 L 73.806,8.7333232 Z M 62.063,54.505323 c -0.062,-0.061 -3.318,-1.339 -3.386,-1.38 -0.018,-0.007 -0.037,-0.004 -0.056,-0.01 l -0.562,-4.851 c -0.045,-0.346 0.039,-0.693 0.182,-1.006 1.816,0.472 3.705,0.332 4.667,0.203 0.602,0.76 1.863,2.173 3.498,3.095 -0.115,0.324 -0.296,0.634 -0.567,0.849 0,0 0,0 0,0 l -3.774,3.099 z m -1.751,1.438 -1.244,1.022 -0.185,-1.599 1.43,0.578 z m 6.85,-7.26 c -1.223,-0.751 -2.204,-1.858 -2.678,-2.454 l 14.331,-35.472 3.155,1.275 -14.808,36.652 z M 75.867,3.6313232 c 0.498,-1.306 2.102,-1.989 3.387,-1.437 0,0 3.339,1.349 3.339,1.349 1.308,0.497 1.989,2.1 1.438,3.387 0,0 -1.312,3.2469998 -1.312,3.2469998 l -8.164,-3.2989998 1.312,-3.246 z M 2.001,15.003323 c 0,-4.411 3.589,-7.9999998 8,-7.9999998 4.411,0 8,3.5889998 8,7.9999998 v 45.006 c -3.775,-5.295 -12.239,-5.287 -16,0.019 z m 8,59 c -4.411,0 -8,-3.589 -8,-8 0.441,-10.616 15.563,-10.607 16,0 0,0.552 0.447,1 1,1 0.553,0 1,-0.448 1,-1 v -47 h 7.419 l 7.73,55 z m 28.811,11.681 -10.578,-75.26 14.956,-2.1019998 0.389,2.7669998 -2.773,0.39 c -0.548,0.077 -0.929,0.583 -0.852,1.129 0.074,0.549 0.593,0.93 1.129,0.851 0,0 2.774,-0.39 2.774,-0.39 l 0.515,3.665 -5.596,0.787 c -0.547,0.077 -0.928,0.583 -0.851,1.129 0.075,0.549 0.594,0.93 1.13,0.851 0,0 5.595,-0.787 5.595,-0.787 l 0.515,3.665 -2.773,0.39 c -0.548,0.077 -0.929,0.583 -0.852,1.129 0.074,0.549 0.593,0.93 1.129,0.851 0,0 2.774,-0.39 2.774,-0.39 l 0.515,3.665 -2.774,0.39 c -0.547,0.077 -0.928,0.583 -0.851,1.129 0.075,0.55 0.594,0.93 1.13,0.851 0,0 2.773,-0.39 2.773,-0.39 l 0.515,3.665 -2.773,0.39 c -0.547,0.077 -0.928,0.583 -0.851,1.129 0.075,0.55 0.594,0.93 1.13,0.851 0,0 2.773,-0.39 2.773,-0.39 l 0.515,3.665 -5.596,0.787 c -0.547,0.077 -0.928,0.583 -0.851,1.129 0.075,0.549 0.594,0.93 1.13,0.851 0,0 5.595,-0.786 5.595,-0.786 l 0.515,3.666 -2.773,0.39 c -0.548,0.077 -0.929,0.583 -0.852,1.129 0.074,0.549 0.593,0.93 1.129,0.851 0,0 2.773,-0.39 2.773,-0.39 l 0.515,3.665 -2.773,0.39 c -0.548,0.077 -0.929,0.583 -0.852,1.129 0.074,0.549 0.593,0.93 1.129,0.851 0,0 2.774,-0.39 2.774,-0.39 l 0.515,3.665 -2.773,0.39 c -0.547,0.077 -0.929,0.583 -0.852,1.129 0.074,0.549 0.593,0.93 1.129,0.851 0,0 2.774,-0.39 2.774,-0.39 l 0.515,3.665 -5.597,0.787 c -0.547,0.077 -0.928,0.583 -0.851,1.129 0.075,0.55 0.594,0.93 1.13,0.851 0,0 5.596,-0.787 5.596,-0.787 l 0.515,3.665 -2.773,0.39 c -0.548,0.077 -0.929,0.583 -0.852,1.129 0.074,0.549 0.593,0.93 1.129,0.851 0,0 2.774,-0.39 2.774,-0.39 l 0.515,3.665 -2.773,0.39 c -0.548,0.077 -0.929,0.583 -0.852,1.129 0.074,0.549 0.593,0.93 1.129,0.851 0,0 2.774,-0.39 2.774,-0.39 l 0.515,3.665 -2.774,0.39 c -0.547,0.077 -0.928,0.583 -0.851,1.129 0.075,0.55 0.594,0.93 1.13,0.851 0,0 2.773,-0.39 2.773,-0.39 l 0.389,2.766 -14.956,2.102 z m 13.235,-28.719 c 0,0 -5.335,-37.962 -5.335,-37.962 H 67.5 l -11.184,27.679 c -0.23,0.572 -0.315,1.198 -0.244,1.812 l 1.22,10.522 c 0.049,0.494 0.498,0.893 0.993,0.885 0.228,0 0.453,-0.078 0.635,-0.227 l 8.187,-6.722 c 0.476,-0.391 0.851,-0.9 1.083,-1.474 l 13.12,-32.475 h 4.691 v 42.313 c -3.892,-0.631 -7.833,-0.568 -11.687,0.207 -0.516,0.103 -0.863,0.589 -0.795,1.111 0.496,3.764 0.527,7.586 0.098,11.36 H 54.44 l -2.393,-17.028 z m 29.184,10.994 c -1.692,1.757 -3.536,3.391 -5.49,4.888 0.271,-3.178 0.232,-6.363 -0.124,-9.532 3.187,-0.545 6.426,-0.556 9.631,-0.098 -1.235,1.661 -2.577,3.254 -4.017,4.742 z"
     id="path1"
     style="fill:#ffffff;fill-opacity:1" />
</svg>
