<svg width="56" height="60" viewBox="0 0 56 60" fill="none" xmlns="http://www.w3.org/2000/svg">
<g clip-path="url(#clip0_21_19)">
<path fill-rule="evenodd" clip-rule="evenodd" d="M52.7129 60H0V38.6766H5.85699V54.6691H46.8559V38.6766H52.7129V60Z" fill="white"/>
<path d="M12.24 37.0919L41.0057 42.5948L42.2149 37.3609L13.4492 31.8556L12.24 37.0919ZM16.0465 24.5553L42.6936 35.8508L45.1759 31.0003L18.5282 19.7047L16.0465 24.5553ZM23.4199 12.6564L46.0108 29.7785L49.7731 25.6665L27.1822 8.54484L23.4199 12.6564ZM38.0022 0L33.2846 3.19365L50.8279 24.6624L55.5454 21.4692L38.0022 0ZM11.714 49.3383H40.9989V44.0075H11.714V49.3383Z" fill="white"/>
</g>
<defs>
<clipPath id="clip0_21_19">
<rect width="55.5455" height="60" fill="white"/>
</clipPath>
</defs>
</svg>
