<?xml version="1.0" encoding="UTF-8" standalone="no"?>
<svg
   data-name="Pros and cons"
   viewBox="0 0 87.97702 85.836342"
   x="0px"
   y="0px"
   version="1.1"
   id="svg11"
   sodipodi:docname="blog.svg"
   width="87.97702"
   height="85.836342"
   inkscape:version="1.3.2 (1:1.3.2+202311252150+091e20ef0f)"
   xmlns:inkscape="http://www.inkscape.org/namespaces/inkscape"
   xmlns:sodipodi="http://sodipodi.sourceforge.net/DTD/sodipodi-0.dtd"
   xmlns="http://www.w3.org/2000/svg"
   xmlns:svg="http://www.w3.org/2000/svg">
  <defs
     id="defs11" />
  <sodipodi:namedview
     id="namedview11"
     pagecolor="#ffffff"
     bordercolor="#111111"
     borderopacity="1"
     inkscape:showpageshadow="0"
     inkscape:pageopacity="0"
     inkscape:pagecheckerboard="1"
     inkscape:deskcolor="#d1d1d1"
     inkscape:zoom="7.8"
     inkscape:cx="43.974359"
     inkscape:cy="54.871795"
     inkscape:window-width="1920"
     inkscape:window-height="1136"
     inkscape:window-x="0"
     inkscape:window-y="0"
     inkscape:window-maximized="1"
     inkscape:current-layer="svg11" />
  <path
     d="m 87.958344,66.48694 c 0.044,0.008 -0.006,-48.263 0.012,-48.281 0,-2.724 -2.216,-4.94 -4.94,-4.94 h -17.291 c 0.028,-0.244 -0.004,-0.483 -0.033,-0.731 4.602,-5.57 -4.286,-11.468 -7.646,-5.089 -1.815,0.582 -3.219,2.012 -3.794,3.793 l -18.296,-10.56899997 c -1.16,-0.668 -2.511,-0.844 -3.803,-0.494 -1.288,0.348 -2.361,1.17699997 -3.022,2.33099997 l -28.4840002,49.321 c -1.366,2.388 -0.548,5.452 1.828,6.834 l 9.0970002,5.256 -0.323,1.21 c -0.709,2.652 0.876,5.399 3.537,6.124 l 10.149,2.721 c 0,0 0,1.313 0,1.313 0,2.724 2.216,4.939 4.939,4.939 h 9.952 l 8.57,4.946 c 2.346,1.364 5.443,0.572 6.825,-1.836 0,0 0.625,-1.084 0.625,-1.084 l 10.151,2.72 c 2.594,0.709 5.421,-0.857 6.123,-3.539 0,0 0.322,-1.208 0.322,-1.208 0.713,-0.056 2.038,0.192 2.429,-0.293 0,0 10.232,-10.24 10.232,-10.24 l 2.558,-2.558 c 0.171,-0.175 0.264,-0.408 0.281,-0.648 z m -25.655,-59.792 c 3.517,0.092 3.516,5.242 0,5.333 -3.516,-0.092 -3.514,-5.242 0,-5.333 z m -4.62,3.122 c 0.223,2.845 3.242,4.934 5.989,3.983 -0.36,1.775 -1.932,3.116 -3.812,3.116 -3.795,0.031 -5.319,-5.029 -2.177,-7.099 z m -29.748,0.812 c 0.436,-1.598 2.081,-2.551 3.677,-2.127 l 17.767,4.764 h -19.489 c -1.098,0 -2.103,0.372 -2.924,0.981 z m 2.943,-7.125 c 0.772,-1.414 2.711,-1.934 4.092,-1.102 0,0 15.929,9.201 15.929,9.201 l -18.769,-5.033 c -1.082,-0.29 -2.173,-0.181 -3.144,0.211 l 1.893,-3.278 z m -28.4820002,49.322 22.6900002,-39.293 -12.964,48.385 -8.6300002,-4.986 c -1.426,-0.829 -1.917,-2.673 -1.097,-4.106 z m 12.9270002,16.496 c -1.599,-0.436 -2.553,-2.085 -2.127,-3.678 l 11.755,-43.876 v 50.135 z m 11.628,5.965 v -57.081 c 0,-1.621 1.318,-2.94 2.939,-2.94 h 24.525 c 0.311,0.754 0.776,1.429 1.353,1.988 l -1.78,2.772 c -0.298,0.465 -0.163,1.083 0.302,1.382 0.458,0.296 1.081,0.167 1.382,-0.301 0,0 1.75,-2.725 1.75,-2.725 2.926,1.44 6.766,-0.155 7.883,-3.115 h 17.724 c 1.621,0 2.94,1.319 2.94,2.94 v 47.222 h -7.857 c -2.722,0 -4.937,2.215 -4.937,4.937 v 7.861 h -43.286 c -1.621,0 -2.939,-1.318 -2.939,-2.939 z m 56.579,-6.832 -8.353,8.353 v -6.443 c 0,-1.619 1.317,-2.937 2.937,-2.937 h 6.443 l -1.026,1.027 z m -30.025,13.882 c -0.825,1.434 -2.661,1.927 -4.094,1.103 l -5.568,-3.214 h 4.456 l 5.563,1.491 -0.358,0.62 z m 16.7,-1.42 c -0.428,1.598 -2.082,2.544 -3.676,2.123 l -10.503,-2.814 h 14.364 l -0.184,0.691 z"
     id="path1"
     style="fill:#ffffff;fill-opacity:1;stroke:none;stroke-opacity:1" />
  <path
     d="m 71.223344,28.06094 h 6.89 c 1.312,-0.021 1.316,-1.978 0,-2 0,0 -6.89,0 -6.89,0 -1.312,0.021 -1.316,1.978 0,2 z"
     id="path2"
     style="fill:#ffffff;fill-opacity:1;stroke:none;stroke-opacity:1" />
  <path
     d="m 34.809344,28.06094 h 30.51 c 0.553,0 1,-0.448 1,-1 0,-0.552 -0.447,-1 -1,-1 h -30.51 c -1.304,0.019 -1.323,1.977 0,2 z"
     id="path3"
     style="fill:#ffffff;fill-opacity:1;stroke:none;stroke-opacity:1" />
  <path
     d="m 59.413344,33.93394 c -1.312,0.021 -1.316,1.978 0,2 0,0 6.889,0 6.889,0 1.312,-0.021 1.316,-1.978 0,-2 0,0 -6.889,0 -6.889,0 z"
     id="path4"
     style="fill:#ffffff;fill-opacity:1;stroke:none;stroke-opacity:1" />
  <path
     d="m 34.809344,35.93394 h 18.699 c 1.309,-0.02 1.319,-1.977 0,-2 0,0 -18.699,0 -18.699,0 -1.309,0.02 -1.319,1.977 0,2 z"
     id="path5"
     style="fill:#ffffff;fill-opacity:1;stroke:none;stroke-opacity:1" />
  <path
     d="m 68.271344,47.74394 h 9.842 c 1.312,-0.021 1.317,-1.978 0,-2 0,0 -9.842,0 -9.842,0 -1.312,0.021 -1.317,1.978 0,2 z"
     id="path6"
     style="fill:#ffffff;fill-opacity:1;stroke:none;stroke-opacity:1" />
  <path
     d="m 34.809344,47.74394 h 27.557 c 1.305,-0.019 1.322,-1.978 0,-2 0,0 -27.557,0 -27.557,0 -1.305,0.019 -1.322,1.978 0,2 z"
     id="path7"
     style="fill:#ffffff;fill-opacity:1;stroke:none;stroke-opacity:1" />
  <path
     d="m 78.113344,53.61794 h -24.604 c -1.307,0.019 -1.321,1.978 0,2 0,0 24.604,0 24.604,0 1.307,-0.019 1.321,-1.978 0,-2 z"
     id="path8"
     style="fill:#ffffff;fill-opacity:1;stroke:none;stroke-opacity:1" />
  <path
     d="m 34.809344,55.61794 h 12.794 c 1.311,-0.021 1.318,-1.978 0,-2 0,0 -12.794,0 -12.794,0 -1.311,0.021 -1.318,1.978 0,2 z"
     id="path9"
     style="fill:#ffffff;fill-opacity:1;stroke:none;stroke-opacity:1" />
  <path
     d="m 60.398344,61.49194 h -25.589 c -1.306,0.019 -1.321,1.978 0,2 0,0 25.589,0 25.589,0 1.306,-0.019 1.321,-1.978 0,-2 z"
     id="path10"
     style="fill:#ffffff;fill-opacity:1;stroke:none;stroke-opacity:1" />
</svg>
