<?xml version="1.0" encoding="UTF-8" standalone="no"?>
<svg
   data-name="Decision making"
   viewBox="0 0 52.219547 70.922998"
   x="0px"
   y="0px"
   version="1.1"
   id="svg4"
   sodipodi:docname="person.svg"
   width="52.219547"
   height="70.922997"
   inkscape:version="1.3.2 (1:1.3.2+202311252150+091e20ef0f)"
   xmlns:inkscape="http://www.inkscape.org/namespaces/inkscape"
   xmlns:sodipodi="http://sodipodi.sourceforge.net/DTD/sodipodi-0.dtd"
   xmlns="http://www.w3.org/2000/svg"
   xmlns:svg="http://www.w3.org/2000/svg">
  <defs
     id="defs4" />
  <sodipodi:namedview
     id="namedview4"
     pagecolor="#ffffff"
     bordercolor="#111111"
     borderopacity="1"
     inkscape:showpageshadow="0"
     inkscape:pageopacity="0"
     inkscape:pagecheckerboard="1"
     inkscape:deskcolor="#d1d1d1"
     inkscape:zoom="7.8"
     inkscape:cx="19.615385"
     inkscape:cy="67.692308"
     inkscape:window-width="1920"
     inkscape:window-height="1136"
     inkscape:window-x="0"
     inkscape:window-y="0"
     inkscape:window-maximized="1"
     inkscape:current-layer="svg4" />
  <path
     d="M 1.0074366,64.922964 H 51.219437 c 0.268,0 0.524,-0.107 0.712,-0.298 0.188,-0.19 0.292,-0.448 0.288,-0.716 -0.063,-4.521 -0.599,-12.556 -3.465,-15.589 -4.704,-4.986 -14.278,-5.3 -15.636,-5.319 -0.35,-0.412 -0.902,-2.221 -0.936,-5.25 2.253,-1.842 3.957,-4.566 4.75,-7.633 2.112,-0.755 3.676,-4.947 1.254,-6.378 2.072,-5.721 2.289,-10.072 0.594,-12.905 -1.178,-1.9690001 -3.267,-3.1810001 -6.039,-3.5050001 -0.821,-0.096 -1.58,-0.328 -2.383,-0.573 -4.345,-1.799 -13.68,-0.469 -14.179,4.8180001 -4.668,0.407 -5.388,8.889 -2.53,12.455 -1.749,1.769 -0.308,5.34 1.686,6.088 0.805,3.117 2.516,5.789 4.671,7.589 -0.029,3.057 -0.586,4.882 -0.938,5.295 -1.485,0.024 -10.9400004,0.375 -15.6030004,5.318 -2.86700004,3.033 -3.40100004,11.068 -3.46500003045,15.589 -0.0170000096,0.543 0.46399999045,1.025 1.00700003045,1.014 z m 12.9880004,-47.287 c 0.255,-3.669 1.833,-4.14 3.18,-4.14 0.6,0.009 1.093,-0.586 0.985,-1.174 -0.006,-0.039 -0.141,-0.947 0.608,-1.91 0.701,-0.9020001 2.344,-2.0510001 6.192,-2.4040001 0.346,-0.032 0.672,-0.047 0.981,-0.047 2.58,-0.012 4.14,1.057 6.568,1.355 6.187,0.8820001 6.182,5.7700001 4.387,12.0440001 -1.329,-3.4 -2.505,-5.063 -5.865,-4.365 -1.843,0.207 -3.933,0.439 -7.364,-0.894 -3.842,-1.505 -8.141,1.977 -8.932,5.915 -0.623,-1.214 -0.86,-2.648 -0.74,-4.381 z m 3.152,11.454 c -0.092,-0.423 -0.445,-0.738 -0.875,-0.783 -0.981,-0.033 -1.684,-2.286 -1.306,-2.776 0.025,-0.031 0.399,0.069 0.505,0.046 0.526,-0.011 0.982,-0.463 0.988,-0.995 -0.047,-2.419 0.976,-4.743 2.768,-5.97 1.207,-0.841 2.594,-1.083 3.714,-0.647 4.953,1.87 6.772,0.987 10.063,0.902 0.748,0.031 2.116,2.888 2.827,5.892 0.159,0.712 0.823,0.919 1.457,0.763 0.407,0.497 -0.319,2.755 -1.291,2.784 -0.431,0.045 -0.783,0.36 -0.875,0.783 -0.968,4.499 -4.43,8.894 -8.993,9.032 -3.94,0 -7.886,-3.968 -8.982,-9.032 z m 8.982,11.032 c 1.374,0 2.765,-0.367 4.096,-1.061 0.108,1.768 0.441,4.147 1.411,5.27 -2.133,3.446 -8.977,3.411 -11.068,-0.02 0.962,-1.137 1.29,-3.518 1.396,-5.279 1.318,0.697 2.731,1.09 4.165,1.09 z m -21.2090004,9.571 c 3.739,-3.964 11.5100004,-4.581 13.7310004,-4.676 2.818,5.194 12.116,5.176 14.917,0 2.221,0.095 9.992,0.712 13.731,4.676 1.645,1.741 2.712,6.647 2.897,13.229 H 2.0224366 c 0.185,-6.582 1.253,-11.489 2.898,-13.229 z"
     id="path1"
     style="fill:#ffffff;fill-opacity:1;stroke:none" />
</svg>
