<?xml version="1.0" encoding="UTF-8" standalone="no"?>
<svg
   viewBox="0 0 88.000664 87.224159"
   x="0px"
   y="0px"
   version="1.1"
   id="svg3"
   sodipodi:docname="socials.svg"
   width="88.000664"
   height="87.224159"
   inkscape:version="1.3.2 (1:1.3.2+202311252150+091e20ef0f)"
   xmlns:inkscape="http://www.inkscape.org/namespaces/inkscape"
   xmlns:sodipodi="http://sodipodi.sourceforge.net/DTD/sodipodi-0.dtd"
   xmlns="http://www.w3.org/2000/svg"
   xmlns:svg="http://www.w3.org/2000/svg">
  <defs
     id="defs3" />
  <sodipodi:namedview
     id="namedview3"
     pagecolor="#ffffff"
     bordercolor="#111111"
     borderopacity="1"
     inkscape:showpageshadow="0"
     inkscape:pageopacity="0"
     inkscape:pagecheckerboard="1"
     inkscape:deskcolor="#d1d1d1"
     inkscape:zoom="7.8"
     inkscape:cx="43.974359"
     inkscape:cy="56.025641"
     inkscape:window-width="1920"
     inkscape:window-height="1136"
     inkscape:window-x="0"
     inkscape:window-y="0"
     inkscape:window-maximized="1"
     inkscape:current-layer="svg3" />
  <path
     d="m 65.089232,53.178161 c 0,0 -12.817,0 -12.817,0 -0.552,0 -1,0.448 -1,1 -0.046,1.186 -0.04,2.509 0.902,3.411 2.385,2.267 1.044,6.651 -2.167,7.243 -2.649,0.633 -5.337,-1.544 -5.281,-4.244 0,-1.118 0.439,-2.187 1.224,-2.999 0.588,-0.588 0.913,-1.371 0.913,-2.203 v -1.207 c 0,-0.552 -0.448,-1 -1,-1 h -11.817 v -10.817 c 0.37,-0.024 0.734,0.054 1.007,0.338 1.199,1.16 2.763,1.798 4.402,1.798 3.931,0.091 7.107,-3.844 6.203,-7.686 -0.886,-4.752 -7.212,-6.678 -10.586,-3.204 -0.291,0.286 -0.653,0.369 -1.025,0.345 v -11.817 c 0,-0.552 -0.448,-1 -1,-1 0,0 -26.7040003,0 -26.7040003,0 -3.497,0 -6.34099997,2.844 -6.34099997,6.34 0.013,13.312 -0.009,40.098 0,53.407 0,3.497 2.84399997,6.341 6.34099997,6.341 H 59.750232 c 3.496,0 6.34,-2.845 6.34,-6.341 v -26.704 c 0,-0.552 -0.448,-1 -1,-1 z m -63.0880003,-25.703 c 0,-2.393 1.947,-4.34 4.341,-4.34 H 32.046232 v 11.817 c 0,0.552 0.448,1 1,1 1.185,0.046 2.511,0.039 3.41,-0.903 2.267,-2.385 6.651,-1.043 7.243,2.168 0.635,2.648 -1.545,5.337 -4.244,5.281 -1.118,0 -2.187,-0.439 -2.999,-1.224 -0.588,-0.588 -1.37,-0.912 -2.202,-0.912 h -1.207 c -0.552,0 -1,0.448 -1,1 v 11.817 h -10.818 c -0.024,-0.37 0.054,-0.734 0.339,-1.007 1.159,-1.199 1.797,-2.762 1.797,-4.401 0.091,-3.93 -3.843,-7.108 -7.686,-6.203 -4.752,0.886 -6.6780003,7.211 -3.205,10.586 0.286,0.291 0.37,0.653 0.346,1.025 H 2.0012317 Z m 0,53.407 v -25.704 H 13.819232 c 0.552,0 1,-0.448 1,-1 0.046,-1.186 0.039,-2.51 -0.903,-3.41 -2.385,-2.267 -1.044,-6.651 2.168,-7.243 2.647,-0.632 5.337,1.544 5.28,4.244 0,1.118 -0.439,2.187 -1.223,2.999 -0.589,0.588 -0.913,1.37 -0.913,2.203 v 1.207 c 0,0.552 0.448,1 1,1 h 11.818 v 10.818 c -0.37,0.024 -0.733,-0.054 -1.008,-0.339 -1.199,-1.159 -2.762,-1.797 -4.401,-1.797 -3.931,-0.09 -7.105,3.838 -6.203,7.686 0.887,4.755 7.214,6.675 10.586,3.205 0.291,-0.286 0.654,-0.37 1.026,-0.346 v 10.818 H 6.3422317 c -2.394,0 -4.341,-1.947 -4.341,-4.341 z m 62.0880003,0 c 0,2.394 -1.947,4.341 -4.34,4.341 h -25.704 v -11.818 c 0,-0.552 -0.448,-1 -1,-1 h -1.207 c -0.807,0 -1.585,0.317 -2.204,0.903 -2.268,2.383 -6.644,1.05 -7.243,-2.167 -0.634,-2.649 1.545,-5.336 4.244,-5.28 1.118,0 2.187,0.439 3,1.224 0.589,0.588 1.371,0.912 2.202,0.912 h 1.207 c 0.552,0 1,-0.448 1,-1 v -11.818 h 10.817 c 0.024,0.37 -0.054,0.734 -0.339,1.008 -1.159,1.199 -1.797,2.762 -1.797,4.401 -0.09,3.932 3.841,7.105 7.686,6.203 4.751,-0.886 6.677,-7.211 3.205,-10.585 -0.286,-0.292 -0.37,-0.654 -0.346,-1.026 h 10.817 v 25.704 z"
     id="path1"
     style="fill:#ffffff;fill-opacity:1" />
  <path
     d="m 84.898232,13.777161 -22.959,-13.63700003 c -0.228,-0.135 -0.501,-0.175 -0.758,-0.109 -0.257,0.065 -0.477,0.23 -0.613,0.458 l -6.545,11.02100003 c -0.283,0.456 -0.118,1.105 0.349,1.371 0,0 1.038,0.616 1.038,0.616 0.694,0.413 1.527,0.539 2.355,0.349 3.168,-0.89 6.251,2.499 5.12,5.563 -1.3,4.039 -7.231,3.894 -8.299,-0.212 -0.206,-0.806 -0.713,-1.484 -1.428,-1.909 l -1.038,-0.616 c -0.475,-0.283 -1.089,-0.126 -1.371,0.349 l -6.545,11.02 c -0.282,0.475 -0.125,1.088 0.349,1.371 0,0 10.16,6.035 10.16,6.035 -0.168,0.331 -0.421,0.603 -0.805,0.693 -1.609,0.439 -2.957,1.457 -3.793,2.866 -2.086,3.334 -0.325,8.073 3.441,9.258 4.526,1.667 9.427,-2.787 8.161,-7.465 -0.097,-0.396 0.016,-0.75 0.227,-1.058 l 10.161,6.035 c 0.228,0.135 0.499,0.173 0.758,0.109 0.257,-0.065 0.477,-0.23 0.613,-0.458 l 13.637,-22.959 c 1.785,-3.006 0.792,-6.904 -2.214,-8.69 z m 0.494,7.668 -13.126,22.099 -10.161,-6.035 c -0.458,-0.284 -1.105,-0.118 -1.371,0.35 -0.645,0.995 -1.316,2.138 -0.965,3.393 0.892,3.167 -2.498,6.251 -5.562,5.12 -2.601,-0.806 -3.799,-4.054 -2.372,-6.345 0.571,-0.961 1.494,-1.656 2.583,-1.954 0.807,-0.205 1.485,-0.712 1.91,-1.428 l 0.616,-1.038 c 0.282,-0.475 0.125,-1.088 -0.349,-1.371 l -10.16,-6.035 5.524,-9.3 c 0.33,0.168 0.604,0.421 0.693,0.805 0.438,1.609 1.457,2.956 2.866,3.793 3.333,2.085 8.073,0.325 9.258,-3.441 1.665,-4.538 -2.789,-9.425 -7.465,-8.161 -0.398,0.096 -0.75,-0.016 -1.058,-0.227 l 5.524,-9.301 22.099,13.126 c 2.058,1.222 2.738,3.891 1.516,5.949 z"
     id="path2"
     style="fill:#ffffff;fill-opacity:1" />
</svg>
